# low-poly asteroid
mtllib asteroid_yellow.mtl
o asteroid_low
v 0.000000 1.170576 0.000000
v 0.000000 1.006476 0.000000
v 0.000000 1.177776 0.000000
v 0.000000 1.135046 0.000000
v 0.000000 0.968291 0.000000
v 0.000000 1.162802 0.000000
v 0.000000 0.821141 0.000000
v 0.000000 1.014122 0.000000
v 0.000000 1.012724 0.000000
v 0.000000 1.099814 0.000000
v 0.000000 0.835790 0.000000
v 0.000000 1.001494 0.000000
v 0.427768 1.032723 0.000000
v 0.323863 0.902830 0.186982
v 0.190180 0.918270 0.329401
v 0.000000 0.876455 0.363039
v -0.212528 1.026177 0.368110
v -0.371966 1.036928 0.214755
v -0.442808 1.069034 0.000000
v -0.348406 0.971250 -0.201153
v -0.219669 1.060656 -0.380478
v 0.000000 0.965516 -0.399930
v 0.167184 0.807236 -0.289571
v 0.382806 1.067145 -0.221013
v 0.584856 0.584856 0.000000
v 0.678884 0.783907 0.391954
v 0.371456 0.742911 0.643380
v 0.000000 0.611981 0.611981
v -0.385232 0.770464 0.667242
v -0.534456 0.617137 0.308568
v -0.642307 0.642307 0.000000
v -0.596772 0.689093 -0.344547
v -0.408719 0.817437 -0.707922
v 0.000000 0.656850 -0.656850
v 0.405069 0.810137 -0.701600
v 0.688386 0.794880 -0.397440
v 0.997090 0.413008 0.000000
v 0.831197 0.397555 0.479892
v 0.467612 0.387383 0.809928
v 0.000000 0.378359 0.913440
v -0.423451 0.350799 0.733439
v -0.662554 0.316894 0.382525
v -0.759691 0.314674 0.000000
v -0.701485 0.335515 -0.405003
v -0.448290 0.371376 -0.776462
v 0.000000 0.399221 -0.963805
v 0.456187 0.377918 -0.790139
v 0.736423 0.352226 -0.425174
v 0.961717 0.000000 0.000000
v 0.818023 0.000000 0.472286
v 0.561879 0.000000 0.973202
v 0.000000 0.000000 1.008509
v -0.519609 0.000000 0.899988
v -0.836296 0.000000 0.482836
v -0.908946 0.000000 0.000000
v -0.818834 0.000000 -0.472754
v -0.476365 0.000000 -0.825088
v 0.000000 0.000000 -0.842706
v 0.563967 0.000000 -0.976819
v 0.900388 0.000000 -0.519839
v 0.861210 -0.356725 0.000000
v 0.908653 -0.434602 0.524611
v 0.510222 -0.422682 0.883731
v 0.000000 -0.367361 0.886889
v -0.467231 -0.387067 0.809268
v -0.833119 -0.398475 0.481002
v -0.947405 -0.392428 0.000000
v -0.807212 -0.386084 -0.466044
v -0.467256 -0.387088 -0.809311
v 0.000000 -0.401740 -0.969887
v 0.484771 -0.401598 -0.839648
v 0.713583 -0.341302 -0.411987
v 0.657668 -0.657668 0.000000
v 0.605278 -0.698914 0.349457
v 0.337500 -0.674999 0.584566
v 0.000000 -0.806074 0.806074
v -0.368680 -0.737360 0.638572
v -0.720764 -0.832267 0.416133
v -0.710372 -0.710372 0.000000
v -0.590264 -0.681578 -0.340789
v -0.332717 -0.665434 -0.576283
v 0.000000 -0.671910 -0.671910
v 0.383165 -0.766330 -0.663661
v 0.590958 -0.682379 -0.341190
v 0.355515 -0.858289 0.000000
v 0.357877 -0.997651 0.206620
v 0.213405 -1.030410 0.369628
v 0.000000 -0.933451 0.386648
v -0.160723 -0.776041 0.278381
v -0.338108 -0.942541 0.195207
v -0.379392 -0.915934 0.000000
v -0.350151 -0.976112 -0.202159
v -0.208740 -1.007887 -0.361549
v 0.000000 -1.064865 -0.441081
v 0.167717 -0.809811 -0.290495
v 0.318492 -0.887859 -0.183882
v 0.000000 -0.903564 0.000000
v 0.000000 -1.042322 0.000000
v 0.000000 -1.045289 0.000000
v 0.000000 -1.109187 0.000000
v 0.000000 -0.837751 0.000000
v 0.000000 -1.158662 0.000000
v 0.000000 -1.088902 0.000000
v 0.000000 -1.091919 0.000000
v 0.000000 -1.075146 0.000000
v 0.000000 -1.051893 0.000000
v 0.000000 -0.898426 0.000000
v 0.000000 -0.870803 0.000000
usemtl Rock
f 1 13 2
f 2 13 14
f 2 14 3
f 3 14 15
f 3 15 4
f 4 15 16
f 4 16 5
f 5 16 17
f 5 17 6
f 6 17 18
f 6 18 7
f 7 18 19
f 7 19 8
f 8 19 20
f 8 20 9
f 9 20 21
f 9 21 10
f 10 21 22
f 10 22 11
f 11 22 23
f 11 23 12
f 12 23 24
f 12 24 1
f 1 24 13
f 13 25 14
f 14 25 26
f 14 26 15
f 15 26 27
f 15 27 16
f 16 27 28
f 16 28 17
f 17 28 29
f 17 29 18
f 18 29 30
f 18 30 19
f 19 30 31
f 19 31 20
f 20 31 32
f 20 32 21
f 21 32 33
f 21 33 22
f 22 33 34
f 22 34 23
f 23 34 35
f 23 35 24
f 24 35 36
f 24 36 13
f 13 36 25
f 25 37 26
f 26 37 38
f 26 38 27
f 27 38 39
f 27 39 28
f 28 39 40
f 28 40 29
f 29 40 41
f 29 41 30
f 30 41 42
f 30 42 31
f 31 42 43
f 31 43 32
f 32 43 44
f 32 44 33
f 33 44 45
f 33 45 34
f 34 45 46
f 34 46 35
f 35 46 47
f 35 47 36
f 36 47 48
f 36 48 25
f 25 48 37
f 37 49 38
f 38 49 50
f 38 50 39
f 39 50 51
f 39 51 40
f 40 51 52
f 40 52 41
f 41 52 53
f 41 53 42
f 42 53 54
f 42 54 43
f 43 54 55
f 43 55 44
f 44 55 56
f 44 56 45
f 45 56 57
f 45 57 46
f 46 57 58
f 46 58 47
f 47 58 59
f 47 59 48
f 48 59 60
f 48 60 37
f 37 60 49
f 49 61 50
f 50 61 62
f 50 62 51
f 51 62 63
f 51 63 52
f 52 63 64
f 52 64 53
f 53 64 65
f 53 65 54
f 54 65 66
f 54 66 55
f 55 66 67
f 55 67 56
f 56 67 68
f 56 68 57
f 57 68 69
f 57 69 58
f 58 69 70
f 58 70 59
f 59 70 71
f 59 71 60
f 60 71 72
f 60 72 49
f 49 72 61
f 61 73 62
f 62 73 74
f 62 74 63
f 63 74 75
f 63 75 64
f 64 75 76
f 64 76 65
f 65 76 77
f 65 77 66
f 66 77 78
f 66 78 67
f 67 78 79
f 67 79 68
f 68 79 80
f 68 80 69
f 69 80 81
f 69 81 70
f 70 81 82
f 70 82 71
f 71 82 83
f 71 83 72
f 72 83 84
f 72 84 61
f 61 84 73
f 73 85 74
f 74 85 86
f 74 86 75
f 75 86 87
f 75 87 76
f 76 87 88
f 76 88 77
f 77 88 89
f 77 89 78
f 78 89 90
f 78 90 79
f 79 90 91
f 79 91 80
f 80 91 92
f 80 92 81
f 81 92 93
f 81 93 82
f 82 93 94
f 82 94 83
f 83 94 95
f 83 95 84
f 84 95 96
f 84 96 73
f 73 96 85
f 85 97 86
f 86 97 98
f 86 98 87
f 87 98 99
f 87 99 88
f 88 99 100
f 88 100 89
f 89 100 101
f 89 101 90
f 90 101 102
f 90 102 91
f 91 102 103
f 91 103 92
f 92 103 104
f 92 104 93
f 93 104 105
f 93 105 94
f 94 105 106
f 94 106 95
f 95 106 107
f 95 107 96
f 96 107 108
f 96 108 85
f 85 108 97
