# low-poly asteroid
mtllib asteroid_yellow.mtl
o asteroid_low
v 0.000000 0.875079 0.000000
v 0.000000 0.823464 0.000000
v 0.000000 1.168272 0.000000
v 0.000000 0.997708 0.000000
v 0.000000 1.114602 0.000000
v 0.000000 0.891824 0.000000
v 0.000000 0.924746 0.000000
v 0.000000 0.823145 0.000000
v 0.000000 0.871786 0.000000
v 0.000000 0.839392 0.000000
v 0.000000 0.869285 0.000000
v 0.000000 1.015961 0.000000
v 0.381869 0.921912 0.000000
v 0.362978 1.011873 0.209566
v 0.183992 0.888390 0.318683
v 0.000000 0.964881 0.399667
v -0.177100 0.855115 0.306746
v -0.351734 0.980525 0.203073
v -0.406625 0.981681 0.000000
v -0.304306 0.848311 -0.175691
v -0.176661 0.852993 -0.305985
v 0.000000 0.914889 -0.378959
v 0.185273 0.894579 -0.320903
v 0.282776 0.788293 -0.163261
v 0.696810 0.696810 0.000000
v 0.705038 0.814107 0.407054
v 0.342293 0.684586 0.592869
v 0.000000 0.664380 0.664380
v -0.343865 0.687731 0.595592
v -0.670445 0.774163 0.387082
v -0.589077 0.589077 0.000000
v -0.711226 0.821253 -0.410626
v -0.311928 0.623857 -0.540276
v 0.000000 0.605206 -0.605206
v 0.406741 0.813482 -0.704496
v 0.507656 0.586190 -0.293095
v 1.005457 0.416474 0.000000
v 0.745398 0.356518 0.430356
v 0.381313 0.315890 0.660453
v 0.000000 0.430132 1.038431
v -0.486360 0.402914 0.842400
v -0.837414 0.400529 0.483481
v -1.081663 0.448039 0.000000
v -0.796014 0.380728 -0.459579
v -0.525844 0.435624 -0.910789
v 0.000000 0.435582 -1.051589
v 0.418981 0.347096 -0.725697
v 0.680401 0.325431 -0.392830
v 0.895019 0.000000 0.000000
v 0.718727 0.000000 0.414957
v 0.417950 0.000000 0.723910
v 0.000000 0.000000 0.833711
v -0.501106 0.000000 0.867941
v -0.892984 0.000000 0.515565
v -0.863976 0.000000 0.000000
v -0.922152 0.000000 -0.532405
v -0.517589 0.000000 -0.896491
v 0.000000 0.000000 -1.135030
v 0.416135 0.000000 -0.720767
v 0.990110 0.000000 -0.571640
v 1.019662 -0.422358 0.000000
v 0.932257 -0.445892 0.538239
v 0.476051 -0.394373 0.824544
v 0.000000 -0.366210 0.884110
v -0.381706 -0.316216 0.661134
v -0.710378 -0.339768 0.410137
v -0.881099 -0.364963 0.000000
v -0.769683 -0.368134 -0.444377
v -0.519592 -0.430444 -0.899960
v 0.000000 -0.364540 -0.880077
v 0.524801 -0.434759 -0.908982
v 0.939275 -0.449248 -0.542291
v 0.746601 -0.746601 0.000000
v 0.684983 -0.790951 0.395475
v 0.369584 -0.739168 0.640138
v 0.000000 -0.747158 0.747158
v -0.353372 -0.706743 0.612057
v -0.706308 -0.815574 0.407787
v -0.632792 -0.632792 0.000000
v -0.629033 -0.726345 -0.363172
v -0.376293 -0.752586 -0.651759
v 0.000000 -0.663096 -0.663096
v 0.305667 -0.611334 -0.529430
v 0.589521 -0.680720 -0.340360
v 0.412890 -0.996804 0.000000
v 0.390859 -1.089596 0.225663
v 0.187365 -0.904677 0.324525
v 0.000000 -0.952647 0.394599
v -0.224236 -1.082708 0.388388
v -0.300137 -0.836691 0.173284
v -0.372665 -0.899692 0.000000
v -0.375581 -1.047003 -0.216842
v -0.175911 -0.849375 -0.304687
v 0.000000 -0.796550 -0.329942
v 0.160787 -0.776351 -0.278492
v 0.353848 -0.986420 -0.204294
v 0.000000 -0.836085 0.000000
v 0.000000 -1.033829 0.000000
v 0.000000 -0.988579 0.000000
v 0.000000 -1.070482 0.000000
v 0.000000 -1.004537 0.000000
v 0.000000 -1.125025 0.000000
v 0.000000 -0.905586 0.000000
v 0.000000 -1.122431 0.000000
v 0.000000 -0.873833 0.000000
v 0.000000 -0.841957 0.000000
v 0.000000 -0.957858 0.000000
v 0.000000 -1.063638 0.000000
usemtl Rock
f 1 13 2
f 2 13 14
f 2 14 3
f 3 14 15
f 3 15 4
f 4 15 16
f 4 16 5
f 5 16 17
f 5 17 6
f 6 17 18
f 6 18 7
f 7 18 19
f 7 19 8
f 8 19 20
f 8 20 9
f 9 20 21
f 9 21 10
f 10 21 22
f 10 22 11
f 11 22 23
f 11 23 12
f 12 23 24
f 12 24 1
f 1 24 13
f 13 25 14
f 14 25 26
f 14 26 15
f 15 26 27
f 15 27 16
f 16 27 28
f 16 28 17
f 17 28 29
f 17 29 18
f 18 29 30
f 18 30 19
f 19 30 31
f 19 31 20
f 20 31 32
f 20 32 21
f 21 32 33
f 21 33 22
f 22 33 34
f 22 34 23
f 23 34 35
f 23 35 24
f 24 35 36
f 24 36 13
f 13 36 25
f 25 37 26
f 26 37 38
f 26 38 27
f 27 38 39
f 27 39 28
f 28 39 40
f 28 40 29
f 29 40 41
f 29 41 30
f 30 41 42
f 30 42 31
f 31 42 43
f 31 43 32
f 32 43 44
f 32 44 33
f 33 44 45
f 33 45 34
f 34 45 46
f 34 46 35
f 35 46 47
f 35 47 36
f 36 47 48
f 36 48 25
f 25 48 37
f 37 49 38
f 38 49 50
f 38 50 39
f 39 50 51
f 39 51 40
f 40 51 52
f 40 52 41
f 41 52 53
f 41 53 42
f 42 53 54
f 42 54 43
f 43 54 55
f 43 55 44
f 44 55 56
f 44 56 45
f 45 56 57
f 45 57 46
f 46 57 58
f 46 58 47
f 47 58 59
f 47 59 48
f 48 59 60
f 48 60 37
f 37 60 49
f 49 61 50
f 50 61 62
f 50 62 51
f 51 62 63
f 51 63 52
f 52 63 64
f 52 64 53
f 53 64 65
f 53 65 54
f 54 65 66
f 54 66 55
f 55 66 67
f 55 67 56
f 56 67 68
f 56 68 57
f 57 68 69
f 57 69 58
f 58 69 70
f 58 70 59
f 59 70 71
f 59 71 60
f 60 71 72
f 60 72 49
f 49 72 61
f 61 73 62
f 62 73 74
f 62 74 63
f 63 74 75
f 63 75 64
f 64 75 76
f 64 76 65
f 65 76 77
f 65 77 66
f 66 77 78
f 66 78 67
f 67 78 79
f 67 79 68
f 68 79 80
f 68 80 69
f 69 80 81
f 69 81 70
f 70 81 82
f 70 82 71
f 71 82 83
f 71 83 72
f 72 83 84
f 72 84 61
f 61 84 73
f 73 85 74
f 74 85 86
f 74 86 75
f 75 86 87
f 75 87 76
f 76 87 88
f 76 88 77
f 77 88 89
f 77 89 78
f 78 89 90
f 78 90 79
f 79 90 91
f 79 91 80
f 80 91 92
f 80 92 81
f 81 92 93
f 81 93 82
f 82 93 94
f 82 94 83
f 83 94 95
f 83 95 84
f 84 95 96
f 84 96 73
f 73 96 85
f 85 97 86
f 86 97 98
f 86 98 87
f 87 98 99
f 87 99 88
f 88 99 100
f 88 100 89
f 89 100 101
f 89 101 90
f 90 101 102
f 90 102 91
f 91 102 103
f 91 103 92
f 92 103 104
f 92 104 93
f 93 104 105
f 93 105 94
f 94 105 106
f 94 106 95
f 95 106 107
f 95 107 96
f 96 107 108
f 96 108 85
f 85 108 97
