# low-poly asteroid
mtllib asteroid_yellow.mtl
o asteroid_low
v 0.000000 0.877922 0.000000
v 0.000000 1.149351 0.000000
v 0.000000 1.027612 0.000000
v 0.000000 0.870737 0.000000
v 0.000000 1.082516 0.000000
v 0.000000 1.141630 0.000000
v 0.000000 1.069655 0.000000
v 0.000000 0.927554 0.000000
v 0.000000 0.858158 0.000000
v 0.000000 0.966441 0.000000
v 0.000000 0.908617 0.000000
v 0.000000 1.111126 0.000000
v 0.320992 0.774942 0.000000
v 0.338391 0.943331 0.195370
v 0.168148 0.811890 0.291241
v 0.000000 1.031366 0.427206
v -0.169151 0.816734 0.292978
v -0.362492 1.010517 0.209285
v -0.347142 0.838075 0.000000
v -0.369419 1.029828 -0.213284
v -0.200624 0.968696 -0.347490
v 0.000000 0.875818 -0.362776
v 0.207909 1.003874 -0.360109
v 0.360586 1.005203 -0.208184
v 0.756477 0.756477 0.000000
v 0.589652 0.680871 0.340436
v 0.405277 0.810554 0.701961
v 0.000000 0.800162 0.800162
v -0.402227 0.804455 0.696678
v -0.629627 0.727030 0.363515
v -0.635565 0.635565 0.000000
v -0.597877 0.690368 -0.345184
v -0.361376 0.722752 -0.625922
v 0.000000 0.741764 -0.741764
v 0.414943 0.829886 -0.718703
v 0.663246 0.765850 -0.382925
v 1.069639 0.443059 0.000000
v 0.791021 0.378340 0.456696
v 0.421923 0.349532 0.730792
v 0.000000 0.345746 0.834705
v -0.443670 0.367548 0.768458
v -0.723859 0.346216 0.417920
v -0.862941 0.357442 0.000000
v -0.802899 0.384021 -0.463554
v -0.422574 0.350071 -0.731919
v 0.000000 0.332057 -0.801656
v 0.475721 0.394100 -0.823972
v 0.902215 0.431523 -0.520894
v 0.910485 0.000000 0.000000
v 0.813591 0.000000 0.469727
v 0.411626 0.000000 0.712957
v 0.000000 0.000000 0.883802
v -0.589516 0.000000 1.021072
v -0.766340 0.000000 0.442447
v -0.945032 0.000000 0.000000
v -0.961239 0.000000 -0.554972
v -0.441383 0.000000 -0.764497
v 0.000000 0.000000 -1.119588
v 0.490458 0.000000 -0.849499
v 0.813734 0.000000 -0.469810
v 1.085866 -0.449780 0.000000
v 0.894559 -0.427861 0.516474
v 0.448027 -0.371158 0.776006
v 0.000000 -0.386503 0.933102
v -0.410026 -0.339676 0.710185
v -0.889946 -0.425654 0.513810
v -0.839807 -0.347859 0.000000
v -0.775923 -0.371118 -0.447979
v -0.474605 -0.393176 -0.822040
v 0.000000 -0.373387 -0.901437
v 0.525952 -0.435713 -0.910976
v 0.860413 -0.411529 -0.496759
v 0.707392 -0.707392 0.000000
v 0.504379 -0.582407 0.291203
v 0.344442 -0.688884 0.596591
v 0.000000 -0.681511 0.681511
v -0.294842 -0.589683 0.510681
v -0.553028 -0.638582 0.319291
v -0.702329 -0.702329 0.000000
v -0.625914 -0.722743 -0.361372
v -0.393528 -0.787055 -0.681610
v 0.000000 -0.593032 -0.593032
v 0.368089 -0.736179 -0.637550
v 0.623528 -0.719988 -0.359994
v 0.392221 -0.946906 0.000000
v 0.276738 -0.771460 0.159775
v 0.186998 -0.902904 0.323889
v 0.000000 -0.884367 0.366317
v -0.176796 -0.853647 0.306220
v -0.292868 -0.816426 0.169087
v -0.390456 -0.942644 0.000000
v -0.284413 -0.792856 -0.164206
v -0.158380 -0.764725 -0.274322
v 0.000000 -1.065929 -0.441522
v 0.173766 -0.839017 -0.300972
v 0.338835 -0.944569 -0.195627
v 0.000000 -1.114824 0.000000
v 0.000000 -1.104059 0.000000
v 0.000000 -0.935877 0.000000
v 0.000000 -0.982492 0.000000
v 0.000000 -1.138706 0.000000
v 0.000000 -0.880054 0.000000
v 0.000000 -0.920206 0.000000
v 0.000000 -1.114778 0.000000
v 0.000000 -0.980881 0.000000
v 0.000000 -0.927875 0.000000
v 0.000000 -1.063398 0.000000
v 0.000000 -1.175385 0.000000
usemtl Rock
f 1 13 2
f 2 13 14
f 2 14 3
f 3 14 15
f 3 15 4
f 4 15 16
f 4 16 5
f 5 16 17
f 5 17 6
f 6 17 18
f 6 18 7
f 7 18 19
f 7 19 8
f 8 19 20
f 8 20 9
f 9 20 21
f 9 21 10
f 10 21 22
f 10 22 11
f 11 22 23
f 11 23 12
f 12 23 24
f 12 24 1
f 1 24 13
f 13 25 14
f 14 25 26
f 14 26 15
f 15 26 27
f 15 27 16
f 16 27 28
f 16 28 17
f 17 28 29
f 17 29 18
f 18 29 30
f 18 30 19
f 19 30 31
f 19 31 20
f 20 31 32
f 20 32 21
f 21 32 33
f 21 33 22
f 22 33 34
f 22 34 23
f 23 34 35
f 23 35 24
f 24 35 36
f 24 36 13
f 13 36 25
f 25 37 26
f 26 37 38
f 26 38 27
f 27 38 39
f 27 39 28
f 28 39 40
f 28 40 29
f 29 40 41
f 29 41 30
f 30 41 42
f 30 42 31
f 31 42 43
f 31 43 32
f 32 43 44
f 32 44 33
f 33 44 45
f 33 45 34
f 34 45 46
f 34 46 35
f 35 46 47
f 35 47 36
f 36 47 48
f 36 48 25
f 25 48 37
f 37 49 38
f 38 49 50
f 38 50 39
f 39 50 51
f 39 51 40
f 40 51 52
f 40 52 41
f 41 52 53
f 41 53 42
f 42 53 54
f 42 54 43
f 43 54 55
f 43 55 44
f 44 55 56
f 44 56 45
f 45 56 57
f 45 57 46
f 46 57 58
f 46 58 47
f 47 58 59
f 47 59 48
f 48 59 60
f 48 60 37
f 37 60 49
f 49 61 50
f 50 61 62
f 50 62 51
f 51 62 63
f 51 63 52
f 52 63 64
f 52 64 53
f 53 64 65
f 53 65 54
f 54 65 66
f 54 66 55
f 55 66 67
f 55 67 56
f 56 67 68
f 56 68 57
f 57 68 69
f 57 69 58
f 58 69 70
f 58 70 59
f 59 70 71
f 59 71 60
f 60 71 72
f 60 72 49
f 49 72 61
f 61 73 62
f 62 73 74
f 62 74 63
f 63 74 75
f 63 75 64
f 64 75 76
f 64 76 65
f 65 76 77
f 65 77 66
f 66 77 78
f 66 78 67
f 67 78 79
f 67 79 68
f 68 79 80
f 68 80 69
f 69 80 81
f 69 81 70
f 70 81 82
f 70 82 71
f 71 82 83
f 71 83 72
f 72 83 84
f 72 84 61
f 61 84 73
f 73 85 74
f 74 85 86
f 74 86 75
f 75 86 87
f 75 87 76
f 76 87 88
f 76 88 77
f 77 88 89
f 77 89 78
f 78 89 90
f 78 90 79
f 79 90 91
f 79 91 80
f 80 91 92
f 80 92 81
f 81 92 93
f 81 93 82
f 82 93 94
f 82 94 83
f 83 94 95
f 83 95 84
f 84 95 96
f 84 96 73
f 73 96 85
f 85 97 86
f 86 97 98
f 86 98 87
f 87 98 99
f 87 99 88
f 88 99 100
f 88 100 89
f 89 100 101
f 89 101 90
f 90 101 102
f 90 102 91
f 91 102 103
f 91 103 92
f 92 103 104
f 92 104 93
f 93 104 105
f 93 105 94
f 94 105 106
f 94 106 95
f 95 106 107
f 95 107 96
f 96 107 108
f 96 108 85
f 85 108 97
