# low-poly asteroid
mtllib asteroid_yellow.mtl
o asteroid_low
v 0.000000 0.995681 0.000000
v 0.000000 1.106410 0.000000
v 0.000000 0.950647 0.000000
v 0.000000 0.957174 0.000000
v 0.000000 0.833531 0.000000
v 0.000000 1.036816 0.000000
v 0.000000 1.014272 0.000000
v 0.000000 1.006231 0.000000
v 0.000000 1.119339 0.000000
v 0.000000 0.874766 0.000000
v 0.000000 1.094923 0.000000
v 0.000000 0.840664 0.000000
v 0.369808 0.892797 0.000000
v 0.311849 0.869339 0.180046
v 0.204460 0.987220 0.354135
v 0.000000 1.081941 0.448154
v -0.217075 1.048130 0.375985
v -0.381119 1.062443 0.220039
v -0.439496 1.061037 0.000000
v -0.305862 0.852648 -0.176589
v -0.203044 0.980381 -0.351682
v 0.000000 0.837958 -0.347094
v 0.196722 0.949860 -0.340733
v 0.331474 0.924048 -0.191377
v 0.673612 0.673612 0.000000
v 0.709043 0.818733 0.409366
v 0.345252 0.690505 0.597995
v 0.000000 0.788287 0.788287
v -0.349397 0.698795 0.605174
v -0.535924 0.618832 0.309416
v -0.830032 0.830032 0.000000
v -0.513502 0.592941 -0.296471
v -0.391896 0.783791 -0.678783
v 0.000000 0.643847 -0.643847
v 0.358855 0.717710 -0.621556
v 0.570687 0.658972 -0.329486
v 1.056657 0.437682 0.000000
v 0.870011 0.416120 0.502301
v 0.514571 0.426285 0.891264
v 0.000000 0.440222 1.062789
v -0.533575 0.442028 0.924179
v -0.686320 0.328262 0.396247
v -0.851606 0.352747 0.000000
v -0.789024 0.377385 -0.455543
v -0.464680 0.384953 -0.804849
v 0.000000 0.405733 -0.979525
v 0.417586 0.345939 -0.723280
v 0.761767 0.364348 -0.439806
v 0.931890 0.000000 0.000000
v 0.721904 0.000000 0.416791
v 0.481275 0.000000 0.833592
v 0.000000 0.000000 1.061871
v -0.455122 0.000000 0.788294
v -0.877459 0.000000 0.506601
v -0.843576 0.000000 0.000000
v -0.786941 0.000000 -0.454341
v -0.449145 0.000000 -0.777941
v 0.000000 0.000000 -1.130465
v 0.412272 0.000000 -0.714076
v 0.741030 0.000000 -0.427834
v 0.813286 -0.336874 0.000000
v 0.863684 -0.413094 0.498648
v 0.387099 -0.320683 0.670475
v 0.000000 -0.407244 0.983173
v -0.406934 -0.337115 0.704830
v -0.861213 -0.411912 0.497222
v -0.842778 -0.349090 0.000000
v -0.700745 -0.335161 -0.404575
v -0.510891 -0.423236 -0.884890
v 0.000000 -0.366087 -0.883812
v 0.391432 -0.324273 -0.677980
v 0.693781 -0.331830 -0.400554
v 0.605315 -0.605315 0.000000
v 0.721438 -0.833045 0.416523
v 0.335107 -0.670214 0.580422
v 0.000000 -0.723630 0.723630
v -0.411970 -0.823941 0.713554
v -0.527845 -0.609503 0.304752
v -0.830321 -0.830321 0.000000
v -0.656708 -0.758301 -0.379151
v -0.379674 -0.759348 -0.657615
v 0.000000 -0.597106 -0.597106
v 0.354584 -0.709168 -0.614158
v 0.596856 -0.689190 -0.344595
v 0.418124 -1.009440 0.000000
v 0.308868 -0.861030 0.178325
v 0.212064 -1.023937 0.367306
v 0.000000 -0.845577 0.350249
v -0.169713 -0.819446 0.293951
v -0.306993 -0.855803 0.177243
v -0.326673 -0.788659 0.000000
v -0.276151 -0.769825 -0.159436
v -0.207191 -1.000405 -0.358865
v 0.000000 -0.996190 -0.412635
v 0.208574 -1.007084 -0.361261
v 0.296817 -0.827434 -0.171367
v 0.000000 -0.839804 0.000000
v 0.000000 -1.037592 0.000000
v 0.000000 -0.925230 0.000000
v 0.000000 -1.109554 0.000000
v 0.000000 -0.968015 0.000000
v 0.000000 -0.848165 0.000000
v 0.000000 -1.026117 0.000000
v 0.000000 -1.155259 0.000000
v 0.000000 -1.166216 0.000000
v 0.000000 -0.915436 0.000000
v 0.000000 -1.025827 0.000000
v 0.000000 -0.912140 0.000000
usemtl Rock
f 1 13 2
f 2 13 14
f 2 14 3
f 3 14 15
f 3 15 4
f 4 15 16
f 4 16 5
f 5 16 17
f 5 17 6
f 6 17 18
f 6 18 7
f 7 18 19
f 7 19 8
f 8 19 20
f 8 20 9
f 9 20 21
f 9 21 10
f 10 21 22
f 10 22 11
f 11 22 23
f 11 23 12
f 12 23 24
f 12 24 1
f 1 24 13
f 13 25 14
f 14 25 26
f 14 26 15
f 15 26 27
f 15 27 16
f 16 27 28
f 16 28 17
f 17 28 29
f 17 29 18
f 18 29 30
f 18 30 19
f 19 30 31
f 19 31 20
f 20 31 32
f 20 32 21
f 21 32 33
f 21 33 22
f 22 33 34
f 22 34 23
f 23 34 35
f 23 35 24
f 24 35 36
f 24 36 13
f 13 36 25
f 25 37 26
f 26 37 38
f 26 38 27
f 27 38 39
f 27 39 28
f 28 39 40
f 28 40 29
f 29 40 41
f 29 41 30
f 30 41 42
f 30 42 31
f 31 42 43
f 31 43 32
f 32 43 44
f 32 44 33
f 33 44 45
f 33 45 34
f 34 45 46
f 34 46 35
f 35 46 47
f 35 47 36
f 36 47 48
f 36 48 25
f 25 48 37
f 37 49 38
f 38 49 50
f 38 50 39
f 39 50 51
f 39 51 40
f 40 51 52
f 40 52 41
f 41 52 53
f 41 53 42
f 42 53 54
f 42 54 43
f 43 54 55
f 43 55 44
f 44 55 56
f 44 56 45
f 45 56 57
f 45 57 46
f 46 57 58
f 46 58 47
f 47 58 59
f 47 59 48
f 48 59 60
f 48 60 37
f 37 60 49
f 49 61 50
f 50 61 62
f 50 62 51
f 51 62 63
f 51 63 52
f 52 63 64
f 52 64 53
f 53 64 65
f 53 65 54
f 54 65 66
f 54 66 55
f 55 66 67
f 55 67 56
f 56 67 68
f 56 68 57
f 57 68 69
f 57 69 58
f 58 69 70
f 58 70 59
f 59 70 71
f 59 71 60
f 60 71 72
f 60 72 49
f 49 72 61
f 61 73 62
f 62 73 74
f 62 74 63
f 63 74 75
f 63 75 64
f 64 75 76
f 64 76 65
f 65 76 77
f 65 77 66
f 66 77 78
f 66 78 67
f 67 78 79
f 67 79 68
f 68 79 80
f 68 80 69
f 69 80 81
f 69 81 70
f 70 81 82
f 70 82 71
f 71 82 83
f 71 83 72
f 72 83 84
f 72 84 61
f 61 84 73
f 73 85 74
f 74 85 86
f 74 86 75
f 75 86 87
f 75 87 76
f 76 87 88
f 76 88 77
f 77 88 89
f 77 89 78
f 78 89 90
f 78 90 79
f 79 90 91
f 79 91 80
f 80 91 92
f 80 92 81
f 81 92 93
f 81 93 82
f 82 93 94
f 82 94 83
f 83 94 95
f 83 95 84
f 84 95 96
f 84 96 73
f 73 96 85
f 85 97 86
f 86 97 98
f 86 98 87
f 87 98 99
f 87 99 88
f 88 99 100
f 88 100 89
f 89 100 101
f 89 101 90
f 90 101 102
f 90 102 91
f 91 102 103
f 91 103 92
f 92 103 104
f 92 104 93
f 93 104 105
f 93 105 94
f 94 105 106
f 94 106 95
f 95 106 107
f 95 107 96
f 96 107 108
f 96 108 85
f 85 108 97
