# prison_sphere_fixed.obj - 6-band meridian ribbon sphere prison (triangulated, watertight ribbons)
mtllib prison_sphere.mtl

o prison_sphere
s off
usemtl Prison_Green

# Vertices
v 0.000000 -1.550000 -0.000000
v 0.000000 -1.550000 0.000000
v 0.000000 -1.610000 -0.000000
v 0.000000 -1.610000 0.000000
v 0.301063 -1.520217 -0.028300
v 0.301063 -1.520217 0.028300
v 0.312717 -1.579064 -0.029396
v 0.312717 -1.579064 0.029396
v 0.589472 -1.432013 -0.066035
v 0.589472 -1.432013 0.066035
v 0.612290 -1.487446 -0.068591
v 0.612290 -1.487446 0.068591
v 0.853116 -1.288778 -0.117240
v 0.853116 -1.288778 0.117240
v 0.886139 -1.338666 -0.121778
v 0.886139 -1.338666 0.121778
v 1.081462 -1.096016 -0.178017
v 1.081462 -1.096016 0.178017
v 1.123325 -1.138442 -0.184908
v 1.123325 -1.138442 0.184908
v 1.266578 -0.861134 -0.238176
v 1.266578 -0.861134 0.238176
v 1.315607 -0.894468 -0.247395
v 1.315607 -0.894468 0.247395
v 1.403142 -0.593159 -0.286100
v 1.403142 -0.593159 0.286100
v 1.457458 -0.616120 -0.297175
v 1.457458 -0.616120 0.297175
v 1.487393 -0.302390 -0.314200
v 1.487393 -0.302390 0.314200
v 1.544970 -0.314095 -0.326363
v 1.544970 -0.314095 0.326363
v 1.516129 0.000000 -0.322263
v 1.516129 0.000000 0.322263
v 1.574818 0.000000 -0.334738
v 1.574818 0.000000 0.334738
v 1.487393 0.302390 -0.314200
v 1.487393 0.302390 0.314200
v 1.544970 0.314095 -0.326363
v 1.544970 0.314095 0.326363
v 1.403142 0.593159 -0.286100
v 1.403142 0.593159 0.286100
v 1.457458 0.616120 -0.297175
v 1.457458 0.616120 0.297175
v 1.266578 0.861134 -0.238176
v 1.266578 0.861134 0.238176
v 1.315607 0.894468 -0.247395
v 1.315607 0.894468 0.247395
v 1.081462 1.096016 -0.178017
v 1.081462 1.096016 0.178017
v 1.123325 1.138442 -0.184908
v 1.123325 1.138442 0.184908
v 0.853116 1.288778 -0.117240
v 0.853116 1.288778 0.117240
v 0.886139 1.338666 -0.121778
v 0.886139 1.338666 0.121778
v 0.589472 1.432013 -0.066035
v 0.589472 1.432013 0.066035
v 0.612290 1.487446 -0.068591
v 0.612290 1.487446 0.068591
v 0.301063 1.520217 -0.028300
v 0.301063 1.520217 0.028300
v 0.312717 1.579064 -0.029396
v 0.312717 1.579064 0.029396
v 0.000000 1.550000 -0.000000
v 0.000000 1.550000 0.000000
v 0.000000 1.610000 -0.000000
v 0.000000 1.610000 0.000000
v 0.000000 -1.550000 0.000000
v 0.000000 -1.550000 0.000000
v 0.000000 -1.610000 0.000000
v 0.000000 -1.610000 0.000000
v 0.175040 -1.520217 0.246578
v 0.126022 -1.520217 0.274878
v 0.181816 -1.579064 0.256123
v 0.130901 -1.579064 0.285519
v 0.351924 -1.432013 0.477480
v 0.237548 -1.432013 0.543515
v 0.365547 -1.487446 0.495964
v 0.246744 -1.487446 0.564555
v 0.528091 -1.288778 0.680200
v 0.325025 -1.288778 0.797440
v 0.548533 -1.338666 0.706530
v 0.337607 -1.338666 0.828308
v 0.694898 -1.096016 0.847565
v 0.386564 -1.096016 1.025582
v 0.721797 -1.138442 0.880374
v 0.401528 -1.138442 1.065282
v 0.839555 -0.861134 0.977801
v 0.427023 -0.861134 1.215977
v 0.872054 -0.894468 1.015652
v 0.443553 -0.894468 1.263047
v 0.949341 -0.593159 1.072107
v 0.453801 -0.593159 1.358207
v 0.986090 -0.616120 1.113608
v 0.471368 -0.616120 1.410783
v 1.015802 -0.302390 1.131020
v 0.471591 -0.302390 1.445220
v 1.055123 -0.314095 1.174802
v 0.489846 -0.314095 1.501164
v 1.037152 0.000000 1.151874
v 0.478976 0.000000 1.474138
v 1.077300 0.000000 1.196463
v 0.497517 0.000000 1.531201
v 1.015802 0.302390 1.131020
v 0.471591 0.302390 1.445220
v 1.055123 0.314095 1.174802
v 0.489846 0.314095 1.501164
v 0.949341 0.593159 1.072107
v 0.453801 0.593159 1.358207
v 0.986090 0.616120 1.113608
v 0.471368 0.616120 1.410783
v 0.839555 0.861134 0.977801
v 0.427023 0.861134 1.215977
v 0.872054 0.894468 1.015652
v 0.443553 0.894468 1.263047
v 0.694898 1.096016 0.847565
v 0.386564 1.096016 1.025582
v 0.721797 1.138442 0.880374
v 0.401528 1.138442 1.065282
v 0.528091 1.288778 0.680200
v 0.325025 1.288778 0.797440
v 0.548533 1.338666 0.706530
v 0.337607 1.338666 0.828308
v 0.351924 1.432013 0.477480
v 0.237548 1.432013 0.543515
v 0.365547 1.487446 0.495964
v 0.246744 1.487446 0.564555
v 0.175040 1.520217 0.246578
v 0.126022 1.520217 0.274878
v 0.181816 1.579064 0.256123
v 0.130901 1.579064 0.285519
v 0.000000 1.550000 0.000000
v 0.000000 1.550000 0.000000
v 0.000000 1.610000 0.000000
v 0.000000 1.610000 0.000000
v -0.000000 -1.550000 0.000000
v -0.000000 -1.550000 0.000000
v -0.000000 -1.610000 0.000000
v -0.000000 -1.610000 0.000000
v -0.126022 -1.520217 0.274878
v -0.175040 -1.520217 0.246578
v -0.130901 -1.579064 0.285519
v -0.181816 -1.579064 0.256123
v -0.237548 -1.432013 0.543515
v -0.351924 -1.432013 0.477480
v -0.246744 -1.487446 0.564555
v -0.365547 -1.487446 0.495964
v -0.325025 -1.288778 0.797440
v -0.528091 -1.288778 0.680200
v -0.337607 -1.338666 0.828308
v -0.548533 -1.338666 0.706530
v -0.386564 -1.096016 1.025582
v -0.694898 -1.096016 0.847565
v -0.401528 -1.138442 1.065282
v -0.721797 -1.138442 0.880374
v -0.427023 -0.861134 1.215977
v -0.839555 -0.861134 0.977801
v -0.443553 -0.894468 1.263047
v -0.872054 -0.894468 1.015652
v -0.453801 -0.593159 1.358207
v -0.949341 -0.593159 1.072107
v -0.471368 -0.616120 1.410783
v -0.986090 -0.616120 1.113608
v -0.471591 -0.302390 1.445220
v -1.015802 -0.302390 1.131020
v -0.489846 -0.314095 1.501164
v -1.055123 -0.314095 1.174802
v -0.478976 0.000000 1.474138
v -1.037152 0.000000 1.151874
v -0.497517 0.000000 1.531201
v -1.077300 0.000000 1.196463
v -0.471591 0.302390 1.445220
v -1.015802 0.302390 1.131020
v -0.489846 0.314095 1.501164
v -1.055123 0.314095 1.174802
v -0.453801 0.593159 1.358207
v -0.949341 0.593159 1.072107
v -0.471368 0.616120 1.410783
v -0.986090 0.616120 1.113608
v -0.427023 0.861134 1.215977
v -0.839555 0.861134 0.977801
v -0.443553 0.894468 1.263047
v -0.872054 0.894468 1.015652
v -0.386564 1.096016 1.025582
v -0.694898 1.096016 0.847565
v -0.401528 1.138442 1.065282
v -0.721797 1.138442 0.880374
v -0.325025 1.288778 0.797440
v -0.528091 1.288778 0.680200
v -0.337607 1.338666 0.828308
v -0.548533 1.338666 0.706530
v -0.237548 1.432013 0.543515
v -0.351924 1.432013 0.477480
v -0.246744 1.487446 0.564555
v -0.365547 1.487446 0.495964
v -0.126022 1.520217 0.274878
v -0.175040 1.520217 0.246578
v -0.130901 1.579064 0.285519
v -0.181816 1.579064 0.256123
v -0.000000 1.550000 0.000000
v -0.000000 1.550000 0.000000
v -0.000000 1.610000 0.000000
v -0.000000 1.610000 0.000000
v -0.000000 -1.550000 0.000000
v -0.000000 -1.550000 -0.000000
v -0.000000 -1.610000 0.000000
v -0.000000 -1.610000 -0.000000
v -0.301063 -1.520217 0.028300
v -0.301063 -1.520217 -0.028300
v -0.312717 -1.579064 0.029396
v -0.312717 -1.579064 -0.029396
v -0.589472 -1.432013 0.066035
v -0.589472 -1.432013 -0.066035
v -0.612290 -1.487446 0.068591
v -0.612290 -1.487446 -0.068591
v -0.853116 -1.288778 0.117240
v -0.853116 -1.288778 -0.117240
v -0.886139 -1.338666 0.121778
v -0.886139 -1.338666 -0.121778
v -1.081462 -1.096016 0.178017
v -1.081462 -1.096016 -0.178017
v -1.123325 -1.138442 0.184908
v -1.123325 -1.138442 -0.184908
v -1.266578 -0.861134 0.238176
v -1.266578 -0.861134 -0.238176
v -1.315607 -0.894468 0.247395
v -1.315607 -0.894468 -0.247395
v -1.403142 -0.593159 0.286100
v -1.403142 -0.593159 -0.286100
v -1.457458 -0.616120 0.297175
v -1.457458 -0.616120 -0.297175
v -1.487393 -0.302390 0.314200
v -1.487393 -0.302390 -0.314200
v -1.544970 -0.314095 0.326363
v -1.544970 -0.314095 -0.326363
v -1.516129 0.000000 0.322263
v -1.516129 0.000000 -0.322263
v -1.574818 0.000000 0.334738
v -1.574818 0.000000 -0.334738
v -1.487393 0.302390 0.314200
v -1.487393 0.302390 -0.314200
v -1.544970 0.314095 0.326363
v -1.544970 0.314095 -0.326363
v -1.403142 0.593159 0.286100
v -1.403142 0.593159 -0.286100
v -1.457458 0.616120 0.297175
v -1.457458 0.616120 -0.297175
v -1.266578 0.861134 0.238176
v -1.266578 0.861134 -0.238176
v -1.315607 0.894468 0.247395
v -1.315607 0.894468 -0.247395
v -1.081462 1.096016 0.178017
v -1.081462 1.096016 -0.178017
v -1.123325 1.138442 0.184908
v -1.123325 1.138442 -0.184908
v -0.853116 1.288778 0.117240
v -0.853116 1.288778 -0.117240
v -0.886139 1.338666 0.121778
v -0.886139 1.338666 -0.121778
v -0.589472 1.432013 0.066035
v -0.589472 1.432013 -0.066035
v -0.612290 1.487446 0.068591
v -0.612290 1.487446 -0.068591
v -0.301063 1.520217 0.028300
v -0.301063 1.520217 -0.028300
v -0.312717 1.579064 0.029396
v -0.312717 1.579064 -0.029396
v -0.000000 1.550000 0.000000
v -0.000000 1.550000 -0.000000
v -0.000000 1.610000 0.000000
v -0.000000 1.610000 -0.000000
v -0.000000 -1.550000 -0.000000
v -0.000000 -1.550000 -0.000000
v -0.000000 -1.610000 -0.000000
v -0.000000 -1.610000 -0.000000
v -0.175040 -1.520217 -0.246578
v -0.126022 -1.520217 -0.274878
v -0.181816 -1.579064 -0.256123
v -0.130901 -1.579064 -0.285519
v -0.351924 -1.432013 -0.477480
v -0.237548 -1.432013 -0.543515
v -0.365547 -1.487446 -0.495964
v -0.246744 -1.487446 -0.564555
v -0.528091 -1.288778 -0.680200
v -0.325025 -1.288778 -0.797440
v -0.548533 -1.338666 -0.706530
v -0.337607 -1.338666 -0.828308
v -0.694898 -1.096016 -0.847565
v -0.386564 -1.096016 -1.025582
v -0.721797 -1.138442 -0.880374
v -0.401528 -1.138442 -1.065282
v -0.839555 -0.861134 -0.977801
v -0.427023 -0.861134 -1.215977
v -0.872054 -0.894468 -1.015652
v -0.443553 -0.894468 -1.263047
v -0.949341 -0.593159 -1.072107
v -0.453801 -0.593159 -1.358207
v -0.986090 -0.616120 -1.113608
v -0.471368 -0.616120 -1.410783
v -1.015802 -0.302390 -1.131020
v -0.471591 -0.302390 -1.445220
v -1.055123 -0.314095 -1.174802
v -0.489846 -0.314095 -1.501164
v -1.037152 0.000000 -1.151874
v -0.478976 0.000000 -1.474138
v -1.077300 0.000000 -1.196463
v -0.497517 0.000000 -1.531201
v -1.015802 0.302390 -1.131020
v -0.471591 0.302390 -1.445220
v -1.055123 0.314095 -1.174802
v -0.489846 0.314095 -1.501164
v -0.949341 0.593159 -1.072107
v -0.453801 0.593159 -1.358207
v -0.986090 0.616120 -1.113608
v -0.471368 0.616120 -1.410783
v -0.839555 0.861134 -0.977801
v -0.427023 0.861134 -1.215977
v -0.872054 0.894468 -1.015652
v -0.443553 0.894468 -1.263047
v -0.694898 1.096016 -0.847565
v -0.386564 1.096016 -1.025582
v -0.721797 1.138442 -0.880374
v -0.401528 1.138442 -1.065282
v -0.528091 1.288778 -0.680200
v -0.325025 1.288778 -0.797440
v -0.548533 1.338666 -0.706530
v -0.337607 1.338666 -0.828308
v -0.351924 1.432013 -0.477480
v -0.237548 1.432013 -0.543515
v -0.365547 1.487446 -0.495964
v -0.246744 1.487446 -0.564555
v -0.175040 1.520217 -0.246578
v -0.126022 1.520217 -0.274878
v -0.181816 1.579064 -0.256123
v -0.130901 1.579064 -0.285519
v -0.000000 1.550000 -0.000000
v -0.000000 1.550000 -0.000000
v -0.000000 1.610000 -0.000000
v -0.000000 1.610000 -0.000000
v 0.000000 -1.550000 -0.000000
v 0.000000 -1.550000 -0.000000
v 0.000000 -1.610000 -0.000000
v 0.000000 -1.610000 -0.000000
v 0.126022 -1.520217 -0.274878
v 0.175040 -1.520217 -0.246578
v 0.130901 -1.579064 -0.285519
v 0.181816 -1.579064 -0.256123
v 0.237548 -1.432013 -0.543515
v 0.351924 -1.432013 -0.477480
v 0.246744 -1.487446 -0.564555
v 0.365547 -1.487446 -0.495964
v 0.325025 -1.288778 -0.797440
v 0.528091 -1.288778 -0.680200
v 0.337607 -1.338666 -0.828308
v 0.548533 -1.338666 -0.706530
v 0.386564 -1.096016 -1.025582
v 0.694898 -1.096016 -0.847565
v 0.401528 -1.138442 -1.065282
v 0.721797 -1.138442 -0.880374
v 0.427023 -0.861134 -1.215977
v 0.839555 -0.861134 -0.977801
v 0.443553 -0.894468 -1.263047
v 0.872054 -0.894468 -1.015652
v 0.453801 -0.593159 -1.358207
v 0.949341 -0.593159 -1.072107
v 0.471368 -0.616120 -1.410783
v 0.986090 -0.616120 -1.113608
v 0.471591 -0.302390 -1.445220
v 1.015802 -0.302390 -1.131020
v 0.489846 -0.314095 -1.501164
v 1.055123 -0.314095 -1.174802
v 0.478976 0.000000 -1.474138
v 1.037152 0.000000 -1.151874
v 0.497517 0.000000 -1.531201
v 1.077300 0.000000 -1.196463
v 0.471591 0.302390 -1.445220
v 1.015802 0.302390 -1.131020
v 0.489846 0.314095 -1.501164
v 1.055123 0.314095 -1.174802
v 0.453801 0.593159 -1.358207
v 0.949341 0.593159 -1.072107
v 0.471368 0.616120 -1.410783
v 0.986090 0.616120 -1.113608
v 0.427023 0.861134 -1.215977
v 0.839555 0.861134 -0.977801
v 0.443553 0.894468 -1.263047
v 0.872054 0.894468 -1.015652
v 0.386564 1.096016 -1.025582
v 0.694898 1.096016 -0.847565
v 0.401528 1.138442 -1.065282
v 0.721797 1.138442 -0.880374
v 0.325025 1.288778 -0.797440
v 0.528091 1.288778 -0.680200
v 0.337607 1.338666 -0.828308
v 0.548533 1.338666 -0.706530
v 0.237548 1.432013 -0.543515
v 0.351924 1.432013 -0.477480
v 0.246744 1.487446 -0.564555
v 0.365547 1.487446 -0.495964
v 0.126022 1.520217 -0.274878
v 0.175040 1.520217 -0.246578
v 0.130901 1.579064 -0.285519
v 0.181816 1.579064 -0.256123
v 0.000000 1.550000 -0.000000
v 0.000000 1.550000 -0.000000
v 0.000000 1.610000 -0.000000
v 0.000000 1.610000 -0.000000

g band_0
f 1 5 6
f 1 6 2
f 3 4 8
f 3 8 7
f 1 3 7
f 1 7 5
f 2 6 8
f 2 8 4
f 5 9 10
f 5 10 6
f 7 8 12
f 7 12 11
f 5 7 11
f 5 11 9
f 6 10 12
f 6 12 8
f 9 13 14
f 9 14 10
f 11 12 16
f 11 16 15
f 9 11 15
f 9 15 13
f 10 14 16
f 10 16 12
f 13 17 18
f 13 18 14
f 15 16 20
f 15 20 19
f 13 15 19
f 13 19 17
f 14 18 20
f 14 20 16
f 17 21 22
f 17 22 18
f 19 20 24
f 19 24 23
f 17 19 23
f 17 23 21
f 18 22 24
f 18 24 20
f 21 25 26
f 21 26 22
f 23 24 28
f 23 28 27
f 21 23 27
f 21 27 25
f 22 26 28
f 22 28 24
f 25 29 30
f 25 30 26
f 27 28 32
f 27 32 31
f 25 27 31
f 25 31 29
f 26 30 32
f 26 32 28
f 29 33 34
f 29 34 30
f 31 32 36
f 31 36 35
f 29 31 35
f 29 35 33
f 30 34 36
f 30 36 32
f 33 37 38
f 33 38 34
f 35 36 40
f 35 40 39
f 33 35 39
f 33 39 37
f 34 38 40
f 34 40 36
f 37 41 42
f 37 42 38
f 39 40 44
f 39 44 43
f 37 39 43
f 37 43 41
f 38 42 44
f 38 44 40
f 41 45 46
f 41 46 42
f 43 44 48
f 43 48 47
f 41 43 47
f 41 47 45
f 42 46 48
f 42 48 44
f 45 49 50
f 45 50 46
f 47 48 52
f 47 52 51
f 45 47 51
f 45 51 49
f 46 50 52
f 46 52 48
f 49 53 54
f 49 54 50
f 51 52 56
f 51 56 55
f 49 51 55
f 49 55 53
f 50 54 56
f 50 56 52
f 53 57 58
f 53 58 54
f 55 56 60
f 55 60 59
f 53 55 59
f 53 59 57
f 54 58 60
f 54 60 56
f 57 61 62
f 57 62 58
f 59 60 64
f 59 64 63
f 57 59 63
f 57 63 61
f 58 62 64
f 58 64 60
f 61 65 66
f 61 66 62
f 63 64 68
f 63 68 67
f 61 63 67
f 61 67 65
f 62 66 68
f 62 68 64

g band_1
f 69 73 74
f 69 74 70
f 71 72 76
f 71 76 75
f 69 71 75
f 69 75 73
f 70 74 76
f 70 76 72
f 73 77 78
f 73 78 74
f 75 76 80
f 75 80 79
f 73 75 79
f 73 79 77
f 74 78 80
f 74 80 76
f 77 81 82
f 77 82 78
f 79 80 84
f 79 84 83
f 77 79 83
f 77 83 81
f 78 82 84
f 78 84 80
f 81 85 86
f 81 86 82
f 83 84 88
f 83 88 87
f 81 83 87
f 81 87 85
f 82 86 88
f 82 88 84
f 85 89 90
f 85 90 86
f 87 88 92
f 87 92 91
f 85 87 91
f 85 91 89
f 86 90 92
f 86 92 88
f 89 93 94
f 89 94 90
f 91 92 96
f 91 96 95
f 89 91 95
f 89 95 93
f 90 94 96
f 90 96 92
f 93 97 98
f 93 98 94
f 95 96 100
f 95 100 99
f 93 95 99
f 93 99 97
f 94 98 100
f 94 100 96
f 97 101 102
f 97 102 98
f 99 100 104
f 99 104 103
f 97 99 103
f 97 103 101
f 98 102 104
f 98 104 100
f 101 105 106
f 101 106 102
f 103 104 108
f 103 108 107
f 101 103 107
f 101 107 105
f 102 106 108
f 102 108 104
f 105 109 110
f 105 110 106
f 107 108 112
f 107 112 111
f 105 107 111
f 105 111 109
f 106 110 112
f 106 112 108
f 109 113 114
f 109 114 110
f 111 112 116
f 111 116 115
f 109 111 115
f 109 115 113
f 110 114 116
f 110 116 112
f 113 117 118
f 113 118 114
f 115 116 120
f 115 120 119
f 113 115 119
f 113 119 117
f 114 118 120
f 114 120 116
f 117 121 122
f 117 122 118
f 119 120 124
f 119 124 123
f 117 119 123
f 117 123 121
f 118 122 124
f 118 124 120
f 121 125 126
f 121 126 122
f 123 124 128
f 123 128 127
f 121 123 127
f 121 127 125
f 122 126 128
f 122 128 124
f 125 129 130
f 125 130 126
f 127 128 132
f 127 132 131
f 125 127 131
f 125 131 129
f 126 130 132
f 126 132 128
f 129 133 134
f 129 134 130
f 131 132 136
f 131 136 135
f 129 131 135
f 129 135 133
f 130 134 136
f 130 136 132

g band_2
f 137 141 142
f 137 142 138
f 139 140 144
f 139 144 143
f 137 139 143
f 137 143 141
f 138 142 144
f 138 144 140
f 141 145 146
f 141 146 142
f 143 144 148
f 143 148 147
f 141 143 147
f 141 147 145
f 142 146 148
f 142 148 144
f 145 149 150
f 145 150 146
f 147 148 152
f 147 152 151
f 145 147 151
f 145 151 149
f 146 150 152
f 146 152 148
f 149 153 154
f 149 154 150
f 151 152 156
f 151 156 155
f 149 151 155
f 149 155 153
f 150 154 156
f 150 156 152
f 153 157 158
f 153 158 154
f 155 156 160
f 155 160 159
f 153 155 159
f 153 159 157
f 154 158 160
f 154 160 156
f 157 161 162
f 157 162 158
f 159 160 164
f 159 164 163
f 157 159 163
f 157 163 161
f 158 162 164
f 158 164 160
f 161 165 166
f 161 166 162
f 163 164 168
f 163 168 167
f 161 163 167
f 161 167 165
f 162 166 168
f 162 168 164
f 165 169 170
f 165 170 166
f 167 168 172
f 167 172 171
f 165 167 171
f 165 171 169
f 166 170 172
f 166 172 168
f 169 173 174
f 169 174 170
f 171 172 176
f 171 176 175
f 169 171 175
f 169 175 173
f 170 174 176
f 170 176 172
f 173 177 178
f 173 178 174
f 175 176 180
f 175 180 179
f 173 175 179
f 173 179 177
f 174 178 180
f 174 180 176
f 177 181 182
f 177 182 178
f 179 180 184
f 179 184 183
f 177 179 183
f 177 183 181
f 178 182 184
f 178 184 180
f 181 185 186
f 181 186 182
f 183 184 188
f 183 188 187
f 181 183 187
f 181 187 185
f 182 186 188
f 182 188 184
f 185 189 190
f 185 190 186
f 187 188 192
f 187 192 191
f 185 187 191
f 185 191 189
f 186 190 192
f 186 192 188
f 189 193 194
f 189 194 190
f 191 192 196
f 191 196 195
f 189 191 195
f 189 195 193
f 190 194 196
f 190 196 192
f 193 197 198
f 193 198 194
f 195 196 200
f 195 200 199
f 193 195 199
f 193 199 197
f 194 198 200
f 194 200 196
f 197 201 202
f 197 202 198
f 199 200 204
f 199 204 203
f 197 199 203
f 197 203 201
f 198 202 204
f 198 204 200

g band_3
f 205 209 210
f 205 210 206
f 207 208 212
f 207 212 211
f 205 207 211
f 205 211 209
f 206 210 212
f 206 212 208
f 209 213 214
f 209 214 210
f 211 212 216
f 211 216 215
f 209 211 215
f 209 215 213
f 210 214 216
f 210 216 212
f 213 217 218
f 213 218 214
f 215 216 220
f 215 220 219
f 213 215 219
f 213 219 217
f 214 218 220
f 214 220 216
f 217 221 222
f 217 222 218
f 219 220 224
f 219 224 223
f 217 219 223
f 217 223 221
f 218 222 224
f 218 224 220
f 221 225 226
f 221 226 222
f 223 224 228
f 223 228 227
f 221 223 227
f 221 227 225
f 222 226 228
f 222 228 224
f 225 229 230
f 225 230 226
f 227 228 232
f 227 232 231
f 225 227 231
f 225 231 229
f 226 230 232
f 226 232 228
f 229 233 234
f 229 234 230
f 231 232 236
f 231 236 235
f 229 231 235
f 229 235 233
f 230 234 236
f 230 236 232
f 233 237 238
f 233 238 234
f 235 236 240
f 235 240 239
f 233 235 239
f 233 239 237
f 234 238 240
f 234 240 236
f 237 241 242
f 237 242 238
f 239 240 244
f 239 244 243
f 237 239 243
f 237 243 241
f 238 242 244
f 238 244 240
f 241 245 246
f 241 246 242
f 243 244 248
f 243 248 247
f 241 243 247
f 241 247 245
f 242 246 248
f 242 248 244
f 245 249 250
f 245 250 246
f 247 248 252
f 247 252 251
f 245 247 251
f 245 251 249
f 246 250 252
f 246 252 248
f 249 253 254
f 249 254 250
f 251 252 256
f 251 256 255
f 249 251 255
f 249 255 253
f 250 254 256
f 250 256 252
f 253 257 258
f 253 258 254
f 255 256 260
f 255 260 259
f 253 255 259
f 253 259 257
f 254 258 260
f 254 260 256
f 257 261 262
f 257 262 258
f 259 260 264
f 259 264 263
f 257 259 263
f 257 263 261
f 258 262 264
f 258 264 260
f 261 265 266
f 261 266 262
f 263 264 268
f 263 268 267
f 261 263 267
f 261 267 265
f 262 266 268
f 262 268 264
f 265 269 270
f 265 270 266
f 267 268 272
f 267 272 271
f 265 267 271
f 265 271 269
f 266 270 272
f 266 272 268

g band_4
f 273 277 278
f 273 278 274
f 275 276 280
f 275 280 279
f 273 275 279
f 273 279 277
f 274 278 280
f 274 280 276
f 277 281 282
f 277 282 278
f 279 280 284
f 279 284 283
f 277 279 283
f 277 283 281
f 278 282 284
f 278 284 280
f 281 285 286
f 281 286 282
f 283 284 288
f 283 288 287
f 281 283 287
f 281 287 285
f 282 286 288
f 282 288 284
f 285 289 290
f 285 290 286
f 287 288 292
f 287 292 291
f 285 287 291
f 285 291 289
f 286 290 292
f 286 292 288
f 289 293 294
f 289 294 290
f 291 292 296
f 291 296 295
f 289 291 295
f 289 295 293
f 290 294 296
f 290 296 292
f 293 297 298
f 293 298 294
f 295 296 300
f 295 300 299
f 293 295 299
f 293 299 297
f 294 298 300
f 294 300 296
f 297 301 302
f 297 302 298
f 299 300 304
f 299 304 303
f 297 299 303
f 297 303 301
f 298 302 304
f 298 304 300
f 301 305 306
f 301 306 302
f 303 304 308
f 303 308 307
f 301 303 307
f 301 307 305
f 302 306 308
f 302 308 304
f 305 309 310
f 305 310 306
f 307 308 312
f 307 312 311
f 305 307 311
f 305 311 309
f 306 310 312
f 306 312 308
f 309 313 314
f 309 314 310
f 311 312 316
f 311 316 315
f 309 311 315
f 309 315 313
f 310 314 316
f 310 316 312
f 313 317 318
f 313 318 314
f 315 316 320
f 315 320 319
f 313 315 319
f 313 319 317
f 314 318 320
f 314 320 316
f 317 321 322
f 317 322 318
f 319 320 324
f 319 324 323
f 317 319 323
f 317 323 321
f 318 322 324
f 318 324 320
f 321 325 326
f 321 326 322
f 323 324 328
f 323 328 327
f 321 323 327
f 321 327 325
f 322 326 328
f 322 328 324
f 325 329 330
f 325 330 326
f 327 328 332
f 327 332 331
f 325 327 331
f 325 331 329
f 326 330 332
f 326 332 328
f 329 333 334
f 329 334 330
f 331 332 336
f 331 336 335
f 329 331 335
f 329 335 333
f 330 334 336
f 330 336 332
f 333 337 338
f 333 338 334
f 335 336 340
f 335 340 339
f 333 335 339
f 333 339 337
f 334 338 340
f 334 340 336

g band_5
f 341 345 346
f 341 346 342
f 343 344 348
f 343 348 347
f 341 343 347
f 341 347 345
f 342 346 348
f 342 348 344
f 345 349 350
f 345 350 346
f 347 348 352
f 347 352 351
f 345 347 351
f 345 351 349
f 346 350 352
f 346 352 348
f 349 353 354
f 349 354 350
f 351 352 356
f 351 356 355
f 349 351 355
f 349 355 353
f 350 354 356
f 350 356 352
f 353 357 358
f 353 358 354
f 355 356 360
f 355 360 359
f 353 355 359
f 353 359 357
f 354 358 360
f 354 360 356
f 357 361 362
f 357 362 358
f 359 360 364
f 359 364 363
f 357 359 363
f 357 363 361
f 358 362 364
f 358 364 360
f 361 365 366
f 361 366 362
f 363 364 368
f 363 368 367
f 361 363 367
f 361 367 365
f 362 366 368
f 362 368 364
f 365 369 370
f 365 370 366
f 367 368 372
f 367 372 371
f 365 367 371
f 365 371 369
f 366 370 372
f 366 372 368
f 369 373 374
f 369 374 370
f 371 372 376
f 371 376 375
f 369 371 375
f 369 375 373
f 370 374 376
f 370 376 372
f 373 377 378
f 373 378 374
f 375 376 380
f 375 380 379
f 373 375 379
f 373 379 377
f 374 378 380
f 374 380 376
f 377 381 382
f 377 382 378
f 379 380 384
f 379 384 383
f 377 379 383
f 377 383 381
f 378 382 384
f 378 384 380
f 381 385 386
f 381 386 382
f 383 384 388
f 383 388 387
f 381 383 387
f 381 387 385
f 382 386 388
f 382 388 384
f 385 389 390
f 385 390 386
f 387 388 392
f 387 392 391
f 385 387 391
f 385 391 389
f 386 390 392
f 386 392 388
f 389 393 394
f 389 394 390
f 391 392 396
f 391 396 395
f 389 391 395
f 389 395 393
f 390 394 396
f 390 396 392
f 393 397 398
f 393 398 394
f 395 396 400
f 395 400 399
f 393 395 399
f 393 399 397
f 394 398 400
f 394 400 396
f 397 401 402
f 397 402 398
f 399 400 404
f 399 404 403
f 397 399 403
f 397 403 401
f 398 402 404
f 398 404 400
f 401 405 406
f 401 406 402
f 403 404 408
f 403 408 407
f 401 403 407
f 401 407 405
f 402 406 408
f 402 408 404
